# xmcd
#
# Track frame offsets:
#	150
#	12126
#	24285
#	36489
#	52720
#	65206
#	74619
#	90542
#	110799
#	126415
#	143741
#	157543
#	172419
#	188483
#	202131
#	213845
#	225725
#	237269
#	256890
#	270609
#
# Disc length: 3747 seconds
#
# Revision: 1
# Processed by: cddbd v1.5.2PL0 Copyright (c) Steve Scherf et al.
# Submitted via: audiograbber 1.83.01
#
DISCID=1e0ea114
DTITLE=Various Artist - 100 Hits - The Best Country Album (2018) [Box-Set] [CD
DTITLE=1)
DYEAR=2018
DGENRE=Country
TTITLE0=Dolly Parton - Jolene
TTITLE1=Tammy Wynette - Stand By Your Man
TTITLE2=Charlie Rich - The Most Beautiful Girl
TTITLE3=The Charlie Daniels Band - The Devil Went Down To Georgia
TTITLE4=Johnny Cash - Folsom Prison Blues
TTITLE5=Elvis Presley - Snowbird
TTITLE6=Willie Nelson - Always On My Mind
TTITLE7=Janis Joplin - Me And Bobby McGee
TTITLE8=Kris Kristofferson - Why Me
TTITLE9=Dr. Hook and The Medicine Show - Sylvia's Mother
TTITLE10=The Highwayman - Highwayman
TTITLE11=Rosanne Cash - Seven Year Ache
TTITLE12=Don Williams - I've Been Loved By The Best
TTITLE13=Merle Haggard - That's The Way Love Goes
TTITLE14=Hoyt Axton - A Rusty Old Halo
TTITLE15=Johnny Paycheck - Take This Job And Shove It
TTITLE16=Don Gibson - Sea Of Heartbreak
TTITLE17=Marty Robbins - El Paso
TTITLE18=Jimmy Dean - Big Bad John
TTITLE19=Jim Reeves - He'll Have To Go
EXTD=MARO\n
EXTT0=
EXTT1=
EXTT2=
EXTT3=
EXTT4=
EXTT5=
EXTT6=
EXTT7=
EXTT8=
EXTT9=
EXTT10=
EXTT11=
EXTT12=
EXTT13=
EXTT14=
EXTT15=
EXTT16=
EXTT17=
EXTT18=
EXTT19=
PLAYORDER=
